<?xml version="1.0" encoding="iso-8859-1"?>
<!-- Uploaded to: SVG Repo, www.svgrepo.com, Generator: SVG Repo Mixer Tools -->
<svg version="1.1" id="Layer_1" xmlns="http://www.w3.org/2000/svg" xmlns:xlink="http://www.w3.org/1999/xlink" 
	 viewBox="0 0 512 512" xml:space="preserve">
<circle style="fill:#386895;" cx="256" cy="256" r="256"/>
<path style="fill:#273B7A;" d="M356.645,155.514l-198.37,203.817l147.709,147.777c101.285-20.049,181.072-99.837,201.121-201.121
	L356.645,155.514z"/>
<path style="fill:#FDE085;" d="M398.222,256c0-78.546-63.676-142.222-142.222-142.222S113.778,177.454,113.778,256
	S177.454,398.222,256,398.222c12.378,0,24.381-1.588,35.83-4.558l33.161,22.107c6.985,4.658,16.343-0.35,16.343-8.745v-37.245
	C375.875,343.831,398.222,302.528,398.222,256z"/>
<path style="fill:#FFC61B;" d="M256,398.222c12.378,0,24.381-1.588,35.83-4.558l33.161,22.107c6.985,4.658,16.343-0.35,16.343-8.745
	v-37.245c34.542-25.948,56.889-67.251,56.889-113.78c0-78.546-63.676-142.222-142.222-142.222L256,398.222L256,398.222z"/>
<rect id="SVGCleanerId_0" x="199.111" y="192.215" style="fill:#366695;" width="113.778" height="13.791"/>
<rect id="SVGCleanerId_1" x="199.111" y="249.104" style="fill:#366695;" width="113.778" height="13.791"/>
<rect id="SVGCleanerId_2" x="199.111" y="305.993" style="fill:#366695;" width="113.778" height="13.791"/>
<g>
	<rect id="SVGCleanerId_0_1_" x="199.111" y="192.215" style="fill:#366695;" width="113.778" height="13.791"/>
</g>
<g>
	<rect id="SVGCleanerId_1_1_" x="199.111" y="249.104" style="fill:#366695;" width="113.778" height="13.791"/>
</g>
<g>
	<rect id="SVGCleanerId_2_1_" x="199.111" y="305.993" style="fill:#366695;" width="113.778" height="13.791"/>
</g>
</svg>