<svg width="180" height="32" viewBox="0 0 180 32" fill="none" xmlns="http://www.w3.org/2000/svg">
  <defs>
    <linearGradient id="chatbot-gradient-light-lg" x1="0%" y1="0%" x2="100%" y2="100%">
      <stop offset="0%" stop-color="#FB8C00"/> <stop offset="100%" stop-color="#765849"/> </linearGradient>
    <style>
      .chatbot-text-light-lg {
        font-family: 'Poppins', sans-serif; /* Ou votre police préférée */
        font-size: 21px; /* Taille de police augmentée */
        font-weight: 600;
      }
    </style>
  </defs>

  <g transform="translate(0, 4) scale(1.3)">
    <path d="M20 4C20 1.79086 18.2091 0 16 0H4C1.79086 0 0 1.79086 0 4V10C0 12.2091 1.79086 14 4 14H7L10 18V14H16C18.2091 14 20 12.2091 20 10V4Z" fill="url(#chatbot-gradient-light-lg)"/>
    <path d="M24 9C24 7.89543 23.1046 7 22 7H18L15 11V9H14C12.8954 9 12 9.89543 12 11V15C12 16.1046 12.8954 17 14 17H22C23.1046 17 24 16.1046 24 15V9Z" fill="#FFFFFF" fill-opacity="0.7"/>
  </g>

  <text x="45" y="22" fill="#4A5568" class="chatbot-text-light-lg">
    Chatbot
  </text>
</svg>