<svg viewBox="0 0 1200 420" xmlns="http://www.w3.org/2000/svg"><rect width="1200" height="800" fill="#f8fafc"/><text x="600" y="40" text-anchor="middle" font-family="Arial,sans-serif" font-size="24" font-weight="bold" fill="#1e293b">Contexte Documentaire Privé - Assistant RAG Fiqh</text><g><rect x="50" y="80" width="500" height="300" rx="15" fill="#e0f2fe" stroke="#0369a1" stroke-width="2"/><text x="300" y="105" text-anchor="middle" font-family="Arial,sans-serif" font-size="16" font-weight="bold" fill="#0369a1">Fatima - Contexte Privé</text><circle cx="100" cy="140" r="25" fill="#3b82f6"/><text x="100" y="148" text-anchor="middle" font-family="Arial,sans-serif" font-size="12" fill="white" font-weight="bold">F</text><rect x="80" y="180" width="180" height="80" rx="8" fill="#dbeafe" stroke="#3b82f6" stroke-width="1"/><text x="170" y="200" text-anchor="middle" font-family="Arial,sans-serif" font-size="12" font-weight="bold" fill="#1e40af">Conversation A</text><rect x="90" y="210" width="30" height="20" rx="2" fill="#10b981"/><rect x="125" y="210" width="30" height="20" rx="2" fill="#10b981"/><rect x="160" y="210" width="30" height="20" rx="2" fill="#ef4444"/><text x="105" y="245" text-anchor="middle" font-family="Arial,sans-serif" font-size="8" fill="#065f46">Doc1</text><text x="140" y="245" text-anchor="middle" font-family="Arial,sans-serif" font-size="8" fill="#065f46">Doc2</text><text x="175" y="245" text-anchor="middle" font-family="Arial,sans-serif" font-size="8" fill="#991b1b">Doc3</text><rect x="280" y="180" width="180" height="80" rx="8" fill="#dbeafe" stroke="#3b82f6" stroke-width="1"/><text x="370" y="200" text-anchor="middle" font-family="Arial,sans-serif" font-size="12" font-weight="bold" fill="#1e40af">Conversation B</text><rect x="290" y="210" width="30" height="20" rx="2" fill="#10b981"/><rect x="325" y="210" width="30" height="20" rx="2" fill="#10b981"/><rect x="360" y="210" width="30" height="20" rx="2" fill="#10b981"/><rect x="395" y="210" width="30" height="20" rx="2" fill="#ef4444"/><text x="305" y="245" text-anchor="middle" font-family="Arial,sans-serif" font-size="8" fill="#065f46">Doc4</text><text x="340" y="245" text-anchor="middle" font-family="Arial,sans-serif" font-size="8" fill="#065f46">Doc5</text><text x="375" y="245" text-anchor="middle" font-family="Arial,sans-serif" font-size="8" fill="#065f46">Doc6</text><text x="410" y="245" text-anchor="middle" font-family="Arial,sans-serif" font-size="8" fill="#991b1b">Doc7</text><rect x="150" y="290" width="200" height="50" rx="10" fill="#4f46e5" stroke="#3730a3" stroke-width="2"/><text x="250" y="320" text-anchor="middle" font-family="Arial,sans-serif" font-size="14" fill="white" font-weight="bold">Moteur RAG Contextualisé</text></g><g><rect x="650" y="80" width="500" height="300" rx="15" fill="#fef3c7" stroke="#d97706" stroke-width="2"/><text x="900" y="105" text-anchor="middle" font-family="Arial,sans-serif" font-size="16" font-weight="bold" fill="#d97706">Omar - Contexte Privé</text><circle cx="700" cy="140" r="25" fill="#f59e0b"/><text x="700" y="148" text-anchor="middle" font-family="Arial,sans-serif" font-size="12" fill="white" font-weight="bold">O</text><rect x="680" y="180" width="180" height="80" rx="8" fill="#fef3c7" stroke="#f59e0b" stroke-width="1"/><text x="770" y="200" text-anchor="middle" font-family="Arial,sans-serif" font-size="12" font-weight="bold" fill="#92400e">Conversation C</text><rect x="690" y="210" width="30" height="20" rx="2" fill="#10b981"/><rect x="725" y="210" width="30" height="20" rx="2" fill="#10b981"/><rect x="760" y="210" width="30" height="20" rx="2" fill="#ef4444"/><rect x="795" y="210" width="30" height="20" rx="2" fill="#ef4444"/><text x="705" y="245" text-anchor="middle" font-family="Arial,sans-serif" font-size="8" fill="#065f46">Doc8</text><text x="740" y="245" text-anchor="middle" font-family="Arial,sans-serif" font-size="8" fill="#065f46">Doc9</text><text x="775" y="245" text-anchor="middle" font-family="Arial,sans-serif" font-size="8" fill="#991b1b">Doc10</text><text x="810" y="245" text-anchor="middle" font-family="Arial,sans-serif" font-size="8" fill="#991b1b">Doc11</text><rect x="880" y="180" width="180" height="80" rx="8" fill="#fef3c7" stroke="#f59e0b" stroke-width="1"/><text x="970" y="200" text-anchor="middle" font-family="Arial,sans-serif" font-size="12" font-weight="bold" fill="#92400e">Conversation D</text><rect x="890" y="210" width="30" height="20" rx="2" fill="#10b981"/><rect x="925" y="210" width="30" height="20" rx="2" fill="#10b981"/><rect x="960" y="210" width="30" height="20" rx="2" fill="#10b981"/><text x="905" y="245" text-anchor="middle" font-family="Arial,sans-serif" font-size="8" fill="#065f46">Doc12</text><text x="940" y="245" text-anchor="middle" font-family="Arial,sans-serif" font-size="8" fill="#065f46">Doc13</text><text x="975" y="245" text-anchor="middle" font-family="Arial,sans-serif" font-size="8" fill="#065f46">Doc14</text><rect x="750" y="290" width="200" height="50" rx="10" fill="#7c3aed" stroke="#5b21b6" stroke-width="2"/><text x="850" y="320" text-anchor="middle" font-family="Arial,sans-serif" font-size="14" fill="white" font-weight="bold">Moteur RAG Contextualisé</text></g><g><line x1="600" y1="80" x2="600" y2="380" stroke="#dc2626" stroke-width="4" stroke-dasharray="10,5"/><rect x="580" y="200" width="40" height="40" rx="20" fill="#dc2626"/><text x="600" y="225" text-anchor="middle" font-family="Arial,sans-serif" font-size="20" fill="white" font-weight="bold">🔒</text><text x="600" y="255" text-anchor="middle" font-family="Arial,sans-serif" font-size="12" fill="#dc2626" font-weight="bold">Isolation</text><text x="600" y="270" text-anchor="middle" font-family="Arial,sans-serif" font-size="12" fill="#dc2626" font-weight="bold">Sécurisée</text></g></svg>